<?xml version="1.0" standalone="yes"?>
<svg xmlns="http://www.w3.org/2000/svg" width="534" height="496">
<path style="fill:#010101; stroke:none;" d="M0 0L0 496L534 496L534 0L0 0z"/>
<path style="fill:#5d636f; stroke:none;" d="M197 17L196.647 18.6713L196.505 19.1589L196.245 20.1605L195.424 23.0046L194.374 27L192.127 36L188.373 51L183.627 70L182.127 76L180.884 81L179.116 89L177.373 96L174.373 108L169.873 126L168.373 132L167.116 137L165.71 142C165.242 143.657 164.802 145.314 164.449 147L163.887 149.975L163.435 151.84L162.897 153.329L162 155L161.286 153.329L161.031 152.841L159.656 149.975C159.012 148.631 158.391 147.281 157.625 146C156.58 144.252 155.338 142.633 154.126 141C152.646 139.007 151.149 137.03 149.721 135L146.28 130L142.72 125L139.28 120L135.025 114L132.28 110L128.025 104L123.28 97L119.025 91L114.975 85L110.025 78L105.975 72L101.72 66L98.2801 61L94.0247 55L91.2801 51L88.4213 47L85.6003 43.0247L82 38L81.4151 39.0864L81.358 39.517L81.1605 40.321L81.034 42.0587L81 46L81 51C80.9993 52.3322 81.0189 53.6687 80.9606 55C80.9167 56.0046 80.8442 57.0025 80.7145 58L80.2855 61C80.1631 61.9977 80.0734 62.9943 80.054 64C80.0347 65.0019 80.077 66.0025 80.1705 67C80.2962 68.3405 80.5411 69.6658 80.7145 71C80.8442 71.9976 80.9167 72.9953 80.9606 74L80.9992 77L81 81L81 93L81 150L81 169L81 175L80.9961 179C80.9803 180.333 80.9758 181.673 80.8302 183L80.5756 185C80.4307 185.999 80.2654 186.995 80.1698 188C80.0116 189.662 80.0015 191.332 80.0015 193C80.0015 194.668 80.0116 196.338 80.1698 198L80.7145 202C80.8379 202.999 80.9166 203.994 80.9606 205L80.9992 208L81 211L81 222C82.3452 221.749 83.6906 221.472 85.0448 221.272L89 220.728L94 219.92L100.995 218.754L103.84 218.287L104.841 218.167L105.329 218.098L107 218L107 197L107 190C106.999 188.668 107.019 187.331 106.961 186C106.917 184.994 106.838 183.999 106.715 183L106.424 181L106.17 179C106.061 178.004 106.039 177 106.015 176L106 173L106 169L106 157L106 119L107.569 120.086L108.835 121.321L110.275 123.059L112.421 126.001C113.854 127.987 115.271 129.982 116.659 132L119.424 136L122.28 140L125.025 144L127.859 148L130.656 152L134.025 157L138.975 164L145.025 173L149.28 179L152.72 184L156.28 189L159.72 194L162.579 198L165.425 202C166.398 203.341 167.395 204.663 168.406 205.975L169.853 207.84L170.573 208.841L170.955 209.329L172 211L174 211L174.772 209.329L174.932 208.841L175.304 207.84L175.854 205.975L176.873 202L178.873 194L184.873 170L186.873 162L188.116 157L189.651 150C190.189 147.658 190.791 145.331 191.373 143L197.373 119L199.373 111C199.705 109.67 200.054 108.342 200.335 107L200.715 105L201.272 101.045C201.473 99.6906 201.749 98.3452 202 97L202.9 98.6713L203.461 100.16L204.486 104.002L205.09 106L205.815 108L208.189 114L210.05 119L211.576 123L213.692 129L215.947 135L218.053 141L219.947 146L222.053 152L223.947 157L226.053 163L227.947 168L230.053 174L231.576 178L233.424 183L234.946 186.998C235.409 188.268 235.837 189.548 236.234 190.84L236.646 192.329L237 194L238.671 193.958L240.16 193.83L245 193.13L248 192.728L252 192.08L255 191.576L260.84 190.44L261.841 190.279L262.329 190.184L264 190L263.802 188.329L263.481 186.84C262.318 182.424 260.456 178.247 258.811 174L256.576 168L253.811 161L251.95 156L250.05 151L248.189 146L245.424 139L243.576 134L240.424 126L238.576 121L235.811 114L233.576 108L230.424 100L228.576 95L225.424 87L223.576 82L220.424 74L218.576 69L217.399 66C216.076 62.6663 214.7 59.3523 213.424 56L211.189 50L208.424 43L206.576 38L204.6 33L201.4 25L199.78 21.0587L198.93 19.321L198.371 18.517L198.13 18.0864L197 17M335 18L334.586 19.6713L334.413 20.1589L334.093 21.1605L333.046 24.0046L331.189 29L328.811 35L326.576 41L323.424 49L321.576 54L318.424 62L316.189 68L313.424 75L311.576 80L308.424 88L306.576 93L303.424 101L301.576 106L300.05 110L298.576 114L295.424 122L293.189 128L290.424 135L288.189 141L285.424 148L283.189 154L280.424 161L278.189 167L275.811 173L273.576 179L271.695 183.975L270.534 187.329L270 189L271.671 189.769L273.16 190.279C275.404 190.92 277.698 191.354 280 191.725L283 192.13L288 192.87L289.999 193.126L291.985 193.362L292.956 193.427L293.892 193.397L295.581 192.883C296.716 192.232 297.355 191.082 297.895 189.941L298.677 187.995L299.424 186L300.576 183L302.424 178L303.947 174L305.692 169L307.576 164L309.424 159L310.947 155L313.053 149L315.308 143L317.053 138L318.576 134L320.424 129L321.947 125L323.692 120L325.576 115L327.811 109C328.69 106.728 329.654 104.486 330.39 102.16L330.775 100.671L331 99L331.912 100.671L332.511 102.16C333.05 103.75 333.459 105.374 333.873 107L335.127 112L339.373 129L341.873 139L343.116 144L344.424 150L345.374 154L348.627 167L350.127 173L350.884 176L353.116 184L354.373 189L356.884 199L358 203C358.559 204.948 359.096 206.903 359.695 208.84L360.068 209.841L360.228 210.329L361 212L362.344 210.914L362.714 210.483L363.486 209.679C364.477 208.496 365.387 207.252 366.281 205.995L368.341 203L370.424 200L373.28 196L376.72 191L380.28 186L383 182L385.72 178L389.975 172L396.025 163L400.975 156L407.025 147L411.975 140L418.025 131L422.28 125C423.642 123.055 424.947 121.071 426.358 119.16L427.527 117.671L429 116L428.999 121.025C428.996 122.349 429.001 123.678 428.91 125L428.715 127L428.285 130C428.156 130.998 428.083 131.995 428.039 133L428.001 136L428 140L428 151L428 172L428 178L427.961 182L427.91 183L427.715 185L427.424 187C427.288 188 427.158 188.993 427.09 190C427.021 190.998 427.013 192 427.004 193L427 197L427 207L427.001 210C427.005 210.994 427.002 211.988 427.059 212.981C427.125 214.153 427.292 215.447 428.028 216.411C428.775 217.391 429.921 217.806 431.059 218.141L433.005 218.596L435 218.999L438 219.576L441 220.08L444 220.576L448.955 221.272C450.309 221.472 451.655 221.749 453 222L453 211L453.001 208L453.039 205L453.159 203C453.4 200.672 453.751 198.345 453.782 196C453.796 194.998 453.768 193.997 453.664 193C453.489 191.33 453.202 189.676 453.09 188C453 186.669 453.004 185.333 453.001 184L453 179L453 113L453 91L453.001 80C453.009 78.3308 453.011 76.6635 453.17 75C453.265 73.9946 453.431 72.9988 453.576 72L453.83 70C453.976 68.675 453.992 67.3315 453.992 66C453.992 64.6684 453.976 63.3251 453.83 62C453.61 59.9953 453.227 58.0139 453.09 56C453.021 55.0016 453.013 54.0002 453.004 53L453 49L453 39L451.427 40.0864L451.012 40.517L450.14 41.321L448.644 43.0587L447.154 45.0046L445 48C443.102 50.6591 441.193 53.3085 439.341 56L436.576 60L433.025 65L428.28 72L424.72 77L421.33 82L418.576 86L415.025 91L408.975 100L404.025 107L399.975 113L395.025 120L392.33 124L389.576 128L386.72 132L383.28 137L379.709 142L377.579 145L374.763 148.975L373.566 150.84L372.733 152.329L372 154L371.228 152.329L370.696 150.84C370.092 148.915 369.618 146.955 369.127 145L368.127 141L363.127 121L356.627 95L354.127 85L352.884 80L351.116 72L349.373 65L346.627 54L343.873 43L342.116 36L340.151 29L339.371 26L338.844 24.0046L338.559 23.0193L337.89 21.1489L337.066 19.6103L336.215 18.6543L335 18z"/>
<path style="fill:#676f7b; stroke:none;" d="M80 69L80 186L80.5849 184.914L80.642 184.483L80.8395 183.679C80.9438 182.784 80.9639 181.881 80.9861 180.981L81 176L81 159L81 99L81 80L80.9969 75.0046C80.9823 73.7762 80.9819 72.5433 80.8395 71.321L80.642 70.517L80.5849 70.0864L80 69z"/>
<path style="fill:#656d79; stroke:none;" d="M453 72L453 192L453.585 190.914L453.642 190.483L453.84 189.679C453.944 188.784 453.964 187.881 453.986 186.981L454 182L454 165L454 103L454 83L453.997 78.0046C453.982 76.7764 453.982 75.5432 453.84 74.321L453.642 73.517L453.585 73.0864L453 72z"/>
<path style="fill:#69717f; stroke:none;" d="M202 97L201.567 98.625L201.279 100L201.192 100.375L201 102L202 102L202 101L203 100L203 102L203.472 100.933L203.441 100.542L203.459 99.8171L203.013 98.4583L202.882 98.0671L202 97z"/>
<path style="fill:#6b7181; stroke:none;" d="M159 149L159.529 150.645L159.775 151.114L160.16 152L160.921 153.355L162 155L162.897 153.96L163.041 153.641L163.585 152.522L164 151L162.667 150.84L162.292 150.664L161.58 150.42L160.838 150.028L159 149z"/>
<path style="fill:#5d636f; stroke:none;" d="M204 173.743C202.125 174.451 200.514 175.703 199.109 177.109L197.434 179.015L196.742 180.004L195.743 182L195.243 184L195.138 186L195.204 187L195.348 188L195.573 189L196.318 190.996C197.205 192.795 198.519 194.327 200.055 195.606C201.509 196.817 203.188 197.787 205 198.346C207.6 199.148 210.481 199.011 212.999 197.991C214.416 197.417 215.734 196.604 216.891 195.606C217.79 194.83 218.605 193.952 219.258 192.957C219.857 192.043 220.288 191.054 220.566 189.999C220.824 189.022 220.908 188.006 220.941 187L220.891 185L220.785 184L220.347 182.001C219.792 180.236 218.867 178.583 217.606 177.225L215.895 175.703L213.985 174.573L212.996 174.148L211.999 173.804L211 173.534L209 173.201C207.325 173.041 205.587 173.144 204 173.743M323 173.537C321.261 173.939 319.548 174.642 318.105 175.703L316.394 177.225L315.653 178.108L314.457 180.015L314.009 181.004L313.653 182.001L313.218 184L313.12 185L313.12 187L313.218 188L313.653 189.999L314.457 191.985L315.009 192.957L316.394 194.786C317.912 196.446 319.856 197.675 322.001 198.347C322.972 198.652 323.987 198.811 325 198.88C326.33 198.97 327.697 198.898 329 198.605L330.996 197.991L331.985 197.543L333.891 196.347L335.57 194.786L336.86 192.957L337.736 190.996L338.057 189.999L338.528 188C338.823 186.358 338.959 184.637 338.552 183L338.254 182L337.82 181.001L337.258 180.005L335.772 178.055C334.431 176.539 332.824 175.208 330.999 174.318C328.519 173.109 325.667 172.921 323 173.537z"/>
<path style="fill:#676799; stroke:none;" d="M427 183L427 187L427.549 185.975L427.679 185L427.549 184.38L427.549 184.025L427 183z"/>
<path style="fill:#5d636f; stroke:none;" d="M399 186.573C397.228 186.917 395.503 187.682 394.019 188.703L392.133 190.225L391.279 191.108L390.514 192.044L389.318 194.004L388.573 196L388.204 198L388.134 199L388.204 201L388.348 202L388.573 203L389.318 204.996L390.514 206.956L391.279 207.891L392.133 208.772L394.019 210.272L396.001 211.343L397 211.721L398 212.018L400 212.358L401 212.398L403 212.225C404.756 211.928 406.481 211.279 407.956 210.272L409.775 208.772L410.581 207.891L411.297 206.956L412.427 204.996L413.192 203L413.452 202L413.63 201L413.721 199L413.452 197L413.192 196L412.851 195.001L412.427 194.004L411.297 192.044L409.775 190.225L408.892 189.419L407.956 188.703L405.996 187.573L404 186.819L403 186.573L402 186.423L401 186.37L399 186.573M128.004 187.742L126.044 188.742L125.108 189.434L124.225 190.228L123.419 191.109L122.09 193.015L121.573 194.004L120.808 196L120.548 197L120.37 198L120.279 200L120.548 202L120.808 203L121.573 204.996L122.09 205.985L122.703 206.956L124.225 208.772L126.044 210.258L127.015 210.821L128.004 211.258L130 211.772L131 211.89C132 211.955 132.998 211.997 134 211.953C135.703 211.878 137.399 211.652 138.985 210.991L140.895 209.991L141.786 209.347L143.347 207.786L144.543 205.957L145.347 203.996L145.785 202C145.896 201 145.974 200.007 145.941 199C145.908 197.993 145.824 196.978 145.566 196C145.286 194.936 144.85 193.944 144.258 193.015C143.602 191.988 142.786 191.053 141.891 190.228C140.748 189.174 139.456 188.301 137.999 187.742C136.418 187.135 134.676 187.031 133 187.031C131.327 187.031 129.581 187.131 128.004 187.742M81 239L81 305L81.9128 303.914L82.091 303.484L82.5285 302.683L82.8449 301.877L83.5957 300.071L84.5139 298.285L85.5903 296.576C86.1512 295.696 86.7091 294.823 87.216 293.91C88.0998 292.32 88.8481 290.667 89.5718 289C90.1406 287.689 90.663 286.349 91.135 285C91.5939 283.689 92.0249 282.362 92.3056 281C92.5092 280.011 92.6548 279.012 92.642 278C92.6202 276.278 92.1598 274.627 91.6397 273C91.0994 271.31 90.4175 269.675 89.7222 268.045L88.8897 266.159L88.6574 265.671L88 264L89.6551 264.654L90.1157 264.995L91.0556 265.61L92.6304 267.149C93.8745 268.569 94.7661 270.246 95.4367 272C95.8075 272.97 96.0909 273.987 96.3156 275C96.5345 275.987 96.7006 276.988 96.7361 278C96.7831 279.34 96.6324 280.698 96.3156 282C96.0699 283.01 95.8163 284.025 95.4522 285L94.6628 287L93.2431 290C91.4623 293.649 89.5338 297.229 88.0154 301C87.6162 301.991 87.2458 302.987 86.9043 304L86.6096 305L86.2106 307L86.0579 309L86.0556 310L86.186 312L86.3287 313L86.7886 315C87.4821 317.444 88.6407 319.729 89.7562 322L93.2431 329L94.6628 332L95.4522 334C95.8163 334.975 96.0699 335.99 96.3156 337C96.5529 337.975 96.7009 338.996 96.7361 340C96.8076 342.041 96.3804 344.06 95.7793 346C94.795 349.177 93.2005 352.114 91.5756 355L89.8642 358L89.3202 359L88.3241 361L87.4684 363C87.1087 363.989 86.7652 364.972 86.5293 366C86.1528 367.641 86.0293 369.32 86.0293 371C86.0293 372.337 86.1003 373.681 86.3287 375C86.5057 376.022 86.7752 377.017 87.1049 378C87.4491 379.026 87.8835 380.013 88.3241 381L89.3202 383L90.4252 385L92.1389 388L93.7299 391L94.6906 393L95.5764 394.999C96.4432 396.951 97.2039 398.992 98.6489 400.61C100.107 402.242 102.065 403.267 104.004 404.215C104.979 404.691 105.972 405.119 106.975 405.532L108.84 406.206L110.329 406.643L112 407L112.296 405.329C112.467 404.216 112.586 403.103 112.531 401.975C112.448 400.285 112.034 398.618 111.559 397C111.261 395.984 110.908 394.991 110.536 394L109.688 392C109.244 390.984 108.732 389.995 108.244 389L105.753 384L103.782 380L102.877 378C101.948 375.767 101.187 373.445 101.187 371C101.187 367.442 102.746 364.137 104.258 361L105.753 358L108.244 353L109.688 350L110.532 348L111.211 346C111.514 345.028 111.691 344.008 111.815 343C111.937 342.013 111.988 340.995 111.971 340C111.953 338.997 111.935 337.998 111.815 337C111.651 335.633 111.338 334.302 110.892 333C109.917 330.154 108.308 327.617 106.861 325C106.132 323.681 105.431 322.35 104.76 321C104.109 319.69 103.462 318.373 102.951 317L102.301 315L101.823 313L101.479 311C101.365 310.011 101.278 308.995 101.39 308L101.507 307L101.931 305L102.548 303C103.152 301.277 103.95 299.633 104.76 298L106.309 295L107.424 293C108.167 291.672 108.955 290.368 109.626 289L110.521 287L110.891 286L111.455 284L111.707 282L111.541 280L110.907 278L109.867 276L109.236 275L107.855 273L104.309 268.005C103.666 267.068 103.02 266.13 102.426 265.16L101.903 264.159L101.612 263.671L101 262L102.671 261.902L104.16 261.71C106.451 261.341 108.717 260.836 111 260.424L116 259.576L121 258.611L127 257.576L134 256.25L137 255.753L141 255.08L144 254.576L150 253.424L153 252.92L158 252.08L161 251.576L167 250.424L170 249.92L175 249.08L178 248.576L184 247.424L187 246.92L192 246.08L195 245.576L201 244.424L206 243.586L214 242.247L219 241.389L225 240.25L228 239.753L232 239.08L235 238.576L241 237.424L245 236.753L251 235.753C254.003 235.253 257.009 234.769 260 234.197C262.311 233.755 264.633 233.182 267 233.179C268.349 233.177 269.671 233.388 271 233.591L273 233.92L277 234.611L282 235.576L286 236.247L294 237.586L298 238.25L304 239.389L307 239.919L313 240.92L316 241.424L323 242.75L326 243.247L330 243.92L333 244.424L340 245.75L344 246.414L352 247.753L356 248.424L361 249.389L367 250.424L373 251.576L376 252.08L380 252.753L385 253.611L391 254.75L394 255.247L398 255.92L401 256.424L407 257.576L413 258.611L422 260.389L426.995 261.246L429.84 261.713L430.841 261.833L431.329 261.902L433 262L432.59 263.671L432.428 264.159L432.137 265.16L431.633 267.025L431.383 269.002L431.404 270L431.681 272L432.331 275L432.66 277L432.725 279L432.635 280L432.235 282L431.64 284L430.934 286C430.54 287.009 430.146 288.018 429.688 289C428.895 290.697 428.045 292.361 427.139 294L425.425 297L424.324 299L423.824 300C423.348 300.96 422.934 301.969 422.638 303C422.355 303.984 422.197 304.983 422.105 306C422.014 306.997 422.02 308 422.005 309L422.015 311L422.105 313C422.204 314.006 422.328 315.033 422.637 316L423.353 318L424.274 320L425.309 322L427.575 326C428.311 327.315 429.039 328.633 429.677 330C430.285 331.304 430.824 332.642 431.301 334C431.977 335.926 432.631 337.937 432.631 340C432.631 341.72 432.159 343.377 431.64 345C430.981 347.058 430.135 349.045 429.218 351C428.114 353.357 426.904 355.664 425.756 358C424.641 360.271 423.482 362.556 422.789 365C422.509 365.985 422.307 366.983 422.185 368C422.065 368.998 422.047 369.997 422.029 371C422.012 371.995 422.063 373.013 422.185 374C422.309 375.008 422.486 376.028 422.789 377L423.468 379L424.312 381L425.756 384L429.244 391L430.688 394L431.532 395.995C431.907 396.922 432.195 397.88 432.47 398.84L432.801 400.329L433 402L434.671 401.772L436.16 401.362L438.025 400.647L439.004 400.2L440.981 399.2L441.941 398.647L443.667 397.363L444.353 396.61L444.867 395.787L445.184 394.895L445.215 392.985L444.975 391.996L444.629 390.999C443.934 389.285 443.071 387.641 442.222 386L440.641 383C440.132 382.015 439.622 381.031 439.209 380L438.518 378C438.248 377.005 438.022 376.009 437.812 375C437.541 373.69 437.341 372.341 437.341 371C437.341 369.997 437.45 368.985 437.633 368L438.044 366L438.598 364L439.348 362L439.796 361L440.757 359L444.742 351C445.68 349.054 446.62 347.085 447.211 345C447.947 342.404 448.125 339.665 447.671 337C447.126 333.804 445.66 330.882 444.244 328L441.753 323C441.09 321.672 440.407 320.352 439.792 319C439.344 318.013 438.909 317.024 438.548 316C438.202 315.019 437.909 314.015 437.681 313C437.312 311.357 437.091 309.686 437.225 308C437.361 306.275 437.861 304.62 438.443 303C438.932 301.639 439.519 300.315 440.12 299L440.605 298L441.637 296L442.702 294C443.389 292.68 444.072 291.356 444.688 290C445.429 288.366 446.064 286.698 446.64 285C447.081 283.701 447.461 282.357 447.671 281L447.867 279L447.867 278L447.801 277L447.481 275L447.239 274L446.641 272L444.907 267.16L444.414 265.671L444 264L445.626 264.775L446.055 265.112L446.947 265.74L448.377 267.223L449.599 268.985L450.115 269.867L451.055 271.39L451.625 272.005L451.869 272.346L453 273L453 254L453 249L453.04 245.005L453.09 244.025L453.178 243.045L453.478 241.159L453.568 240.671L454 239L452.329 238.373L451.841 238.269L450.84 237.99L446.998 237.199L443 236.424L434 234.919L431 234.389L426 233.424L421 232.586L411 230.919L408 230.389L402 229.25L398 228.586L390 227.247L387 226.75L380 225.424L376 224.753L368 223.414L364 222.75L357 221.424L352 220.586L340 218.586L337 218.08L334 217.576L327 216.25L323 215.586L313 213.92L291 210.247L276 207.753L271 206.924C270.001 206.772 269.005 206.624 268 206.518L266 206.455C264.661 206.486 263.326 206.702 262 206.873L259 207.272L256 207.754L241 210.247L231 211.92L225 212.92L222 213.424L215 214.75L211 215.414L203 216.753L199 217.424L192 218.75L189 219.247L181 220.586L177 221.25L170 222.576L167 223.08L162 223.92L159 224.424L153 225.576L150 226.08L145 226.92L142 227.424L136 228.576L133 229.08L128 229.92L125 230.424L119 231.576L116 232.08L111 232.92L108 233.424L101 234.75L98 235.247L94 235.92C92.3296 236.199 90.656 236.46 89 236.818C88.0001 237.034 87.0088 237.274 86.0247 237.554L84.1605 238.129L83.159 238.427L82.6713 238.59L81 239z"/>
<path style="fill:#656d7b; stroke:none;" d="M80 238L80 300L80.5849 298.914L80.642 298.483L80.8395 297.679L80.966 295.941L80.9992 292.999L81 285L81 255L81.0008 247L81.0571 244.019L81.2932 242.149L81.8688 240.61L82.4313 239.995L84 239L82.9599 238.415L82.6412 238.359L81.5224 238.103L80 238z"/>
<path style="fill:#656d79; stroke:none;" d="M453 240L453 258L453 264C452.999 265.332 453.019 266.669 452.961 268C452.917 269.006 452.838 270.001 452.715 271L452.424 273L452.17 275C452.025 276.324 452.002 277.67 452.019 279C452.035 280.339 452.113 281.672 452.285 283L452.715 286L452.91 288C453.024 289.661 452.997 291.331 453 292.995L453 299L453.585 297.914L453.642 297.483L453.84 296.679L453.966 294.941L453.999 291.999L454 285L454 256L454 248L453.966 244.059L453.84 242.321L453.642 241.517L453.585 241.086L453 240z"/>
<path style="fill:#535965; stroke:none;" d="M123 271L123.676 272.671L124.439 274.16L125.562 276.025L126.914 278.002L128.377 280L131.98 284.84L132.654 285.841L133.012 286.329L134 288L164 288L163.415 289.671L163.358 290.159L163.16 291.16L163.034 293.025L163 298C163 300.336 162.968 302.671 163.174 305C163.263 306.009 163.459 307.011 163.669 308C164.027 309.688 164.506 311.357 165.029 313C165.68 315.048 166.414 317.075 167.377 319C168.067 320.38 168.864 321.704 169.7 323C170.357 324.019 171.037 325.027 171.761 326C172.529 327.032 173.329 328.035 174.184 328.996C175.086 330.009 176.042 330.962 177.015 331.907C177.954 332.819 178.964 333.671 180 334.471C181.874 335.917 183.907 337.118 186 338.215C187.942 339.233 189.935 340.169 192 340.91C193.957 341.612 195.97 342.115 198 342.55L201 343.079C202.662 343.36 204.323 343.65 206 343.826C206.994 343.931 208.002 343.94 209 343.896C210.681 343.821 212.343 343.521 214 343.245C215.679 342.966 217.355 342.684 219 342.243C222.476 341.311 225.818 339.883 229 338.215C231.093 337.118 233.126 335.917 235 334.471C236.402 333.389 237.691 332.193 238.96 330.96L240.816 328.996L242.482 327C243.256 326.045 243.954 325.018 244.64 324C245.302 323.018 245.926 322.015 246.535 321L247.623 319C248.292 317.718 248.806 316.355 249.304 315C249.668 314.01 250.008 313.005 250.329 312C250.854 310.353 251.389 308.71 251.674 307C252.005 305.016 251.989 303.004 251.999 301L251.999 296L251.966 293.025L251.84 291.16L251.642 290.159L251.585 289.671L251 288L285 288L284.478 290.159L284.289 291.16L284.09 293.025L284.04 294.005L284 298C284 299.999 283.971 302.008 284.171 304C284.339 305.681 284.657 307.35 285.015 309C285.233 310.007 285.468 311.008 285.746 312C286.03 313.012 286.359 314.007 286.7 315C287.168 316.366 287.731 317.709 288.377 319C289.245 320.736 290.275 322.392 291.36 324C292.048 325.021 292.756 326.031 293.518 326.999C294.328 328.029 295.185 329.017 296.093 329.961C297.322 331.236 298.643 332.398 300.001 333.532L301 334.319C301.959 335.079 302.973 335.787 304 336.452C305.6 337.488 307.283 338.389 309 339.215C311.259 340.3 313.596 341.241 316 341.958L318 342.497C319.327 342.788 320.66 343.022 322 343.245L325 343.714L326 343.83C327.664 343.966 329.331 344.026 331 343.96L333 343.829C334.344 343.672 335.672 343.456 337 343.192C339.375 342.72 341.718 342.116 344 341.3C345.018 340.936 346.01 340.531 347 340.099L348 339.623L350 338.535C351.015 337.926 352.018 337.302 353 336.64C354.744 335.465 356.422 334.209 357.999 332.816C359.02 331.914 360.02 330.971 360.96 329.985L362.815 327.999L363.671 327L365.211 325C366.346 323.416 367.312 321.723 368.215 320C369.231 318.062 370.182 316.07 370.899 314C371.464 312.366 371.839 310.69 372.192 309C372.399 308.009 372.58 307.004 372.711 306C373.056 303.347 372.999 300.67 373 298L373 288L390 288L394.996 287.981C396.274 287.949 397.628 287.892 398.826 287.397L400.536 286.397L402.112 284.852C402.921 283.949 403.639 282.96 404.37 281.995L405.848 280L407.275 278.002C408.128 276.744 408.971 275.487 409.715 274.16L410.187 273.159L410.448 272.671L411 271L363 271L362.346 269.333L361.39 267.88L359.851 266.16L357.981 264.516C357.008 263.765 356.018 263.048 355 262.36C353.076 261.058 351.08 259.848 349 258.81C347.704 258.164 346.372 257.561 345 257.09L343 256.44L341 255.9L339 255.461C337.679 255.19 336.334 255.057 335 254.87L333 254.579C331.672 254.382 330.346 254.162 329 254.129L327 254.184C325.659 254.319 324.334 254.539 323 254.729C321.333 254.967 319.652 255.135 318 255.464C316.642 255.734 315.32 256.107 314 256.52L313 256.866C311.986 257.212 310.981 257.613 310 258.043C308.978 258.491 307.976 258.973 307 259.515C305.973 260.084 304.976 260.71 304 261.363C302.977 262.046 301.99 262.768 301.015 263.518L300.044 264.324L298.228 266.069L296.74 267.854L295.775 269.329L295 271L293.329 270.751L292.841 270.754L291.84 270.715L287 270.965L283 271L278 271L267 271L263 271L260 270.986L257 270.87C255.665 270.794 254.338 270.692 253 270.71C251.999 270.723 250.999 270.808 250 270.87L248.005 270.965C246.005 271.03 244 271 242 271L241.346 269.344L240.39 267.93L238.851 266.276L237.941 265.463C236.984 264.676 236.011 263.926 234.999 263.209C233.392 262.07 231.716 261.011 230 260.042C229.018 259.488 228.022 258.967 227 258.489C226.014 258.028 225.007 257.619 224 257.208C222.692 256.673 221.359 256.172 220 255.782C218.36 255.31 216.68 255.035 215 254.755L212 254.286L211 254.17C209.336 254.034 207.669 253.974 206 254.04C204.998 254.08 203.993 254.145 203 254.289C201.322 254.533 199.658 254.858 198 255.211C195.977 255.641 193.975 256.132 192 256.749C190.634 257.176 189.297 257.721 188 258.324C186.629 258.962 185.293 259.681 184 260.465C182.975 261.086 181.987 261.759 181.001 262.44C179.647 263.373 178.336 264.388 177.09 265.46L173.576 268.721L171.83 269.976L169.961 270.682L167.996 270.941C166.664 271.003 165.333 270.997 164 271L154 271L123 271z"/>
<path style="fill:#696f7f; stroke:none;" d="M127 270L128.086 270.585L128.517 270.642L129.321 270.84L131.059 270.966L134.001 270.999L142 271L173 271L171.914 270.415L171.483 270.358L170.679 270.16L168.941 270.034L165.999 270.001L158 270L127 270z"/>
<path style="fill:#696f7d; stroke:none;" d="M242 270L243.086 270.585L243.517 270.642L244.321 270.84C245.535 270.981 246.76 270.982 247.98 270.997L253 271L251.914 270.415L251.483 270.358L250.679 270.16C249.465 270.019 248.24 270.018 247.02 270.003L242 270z"/>
<path style="fill:#01ffff; stroke:none;" d="M257 270L258 271L257 270z"/>
<path style="fill:#0101ff; stroke:none;" d="M290 270L291 271L290 270z"/>
<path style="fill:#6b6f7d; stroke:none;" d="M363 270L364.086 270.585L364.517 270.642L365.321 270.84L367.059 270.966L370.001 270.999L378 271L407 271L405.914 270.415L405.483 270.358L404.679 270.16L402.941 270.034L399.999 270.001L392 270L363 270z"/>
<path style="fill:#5d636f; stroke:none;" d="M426 274L424.427 275.671C423.179 277.084 421.982 278.537 420.8 280.005C418.688 282.629 416.65 285.307 414.627 288L409.374 295L407.155 298C406.446 298.984 405.739 299.972 405.094 301C404.106 302.575 403.188 304.21 402.649 306C402.258 307.298 402.094 308.648 402.059 310C402.033 310.997 402.068 312.013 402.214 313L402.637 315L403.352 317C403.941 318.354 404.593 319.677 405.248 321L409.243 329C410.341 331.25 411.483 333.526 411.983 336L412.247 338L412.274 339L412.181 341L411.981 343L411.685 345L411.212 347C410.612 349.082 409.694 351.066 408.73 353C408.054 354.356 407.321 355.681 406.576 357L404.89 360C404.209 361.293 403.582 362.615 403.108 364C402.662 365.302 402.35 366.633 402.185 368C402.065 368.997 402.045 369.997 402.019 371L402.044 373L402.213 375L402.637 377L403.353 379L404.274 381C404.936 382.361 405.682 383.682 406.424 385L407.575 387C408.31 388.313 409.058 389.627 409.677 391L410.546 393C410.935 393.993 411.298 394.99 411.64 396C411.973 396.979 412.27 397.987 412.481 399L412.801 401L412.867 402L412.801 404C412.675 405.347 412.337 406.65 411.999 407.955L411.751 408.84L411.353 410.329L411 412L412.671 411.801L414.16 411.47C415.123 411.195 416.071 410.894 417.005 410.532C418.024 410.138 419.01 409.676 420 409.215L421.996 408.215L423.956 407.123L425.771 405.895L426.562 405.211L427.243 404.471L428.164 402.815L428.382 401.907L428.373 399.985L427.941 397.999C427.441 396.296 426.825 394.632 426.127 393C425.547 391.644 424.897 390.321 424.244 389L421.753 384L419.782 380C419.318 379.008 418.878 378.015 418.468 377L417.792 375L417.368 373L417.267 371C417.294 369.998 417.448 368.973 417.684 368C417.93 366.99 418.184 365.975 418.548 365L419.337 363L420.757 360C421.733 357.999 422.764 356.025 423.691 354C424.444 352.356 425.137 350.683 425.796 349C426.436 347.364 427.084 345.718 427.471 344C427.84 342.364 427.994 340.676 427.942 339L427.786 337L427.61 336L427.363 335L426.648 333C426.207 331.986 425.727 330.995 425.243 330L420.757 321L419.792 319L419.337 318L418.548 316L417.928 314L417.482 312L417.264 310L417.34 308L417.684 306L417.928 305L418.548 303C418.909 301.977 419.343 300.986 419.792 300C420.724 297.956 421.782 295.97 422.858 294L424.514 291C425.031 290.017 425.518 289.021 425.957 288C426.381 287.015 426.749 286.015 427.095 285L427.39 284L427.79 282C427.979 280.693 427.983 279.362 427.996 278.045L428 274L426 274M451 284L450.574 285.671L450.028 287.16C449.48 288.464 448.869 289.734 448.243 291.002L445.756 296L444.312 299C443.724 300.308 443.195 301.637 442.749 303C442.427 303.986 442.141 304.99 441.904 306C441.595 307.312 441.345 308.647 441.347 310C441.349 311.002 441.467 312.024 441.695 313C441.932 314.011 442.184 315.025 442.548 316L443.337 318L444.757 321L446.753 325L449.244 329.995L450.651 332.84L451.099 333.841L451.34 334.329L452 336L452.585 334.914L452.642 334.483L452.84 333.679L452.966 331.941L453 328L453 322L453.004 319C453.02 317.667 453.024 316.327 453.17 315L453.424 313C453.569 312.001 453.735 311.005 453.83 310C453.988 308.339 454.007 306.667 453.995 305C453.986 303.667 453.976 302.326 453.83 301C453.61 298.995 453.227 297.014 453.09 295C452.976 293.339 453.003 291.669 453 290.005L453 284L451 284M116 285L115.142 286.671L114.862 287.159L112.716 291.005L111.001 294L109.309 297C108.779 297.987 108.278 298.987 107.799 300C107.343 300.967 106.93 301.97 106.637 303C105.991 305.274 105.985 307.655 106.005 310C106.013 311.003 106.04 311.999 106.105 313L106.213 314L106.637 316C106.93 317.03 107.343 318.033 107.799 319C108.278 320.013 108.779 321.013 109.309 322L111.575 326C112.311 327.315 113.039 328.633 113.677 330C114.285 331.304 114.824 332.642 115.301 334C115.648 334.99 115.952 335.987 116.225 337L116.581 339C116.668 340.013 116.615 340.999 116.442 342C116.265 343.025 115.942 344.009 115.64 345L115.301 346C114.932 347.01 114.551 348.011 114.127 349C112.962 351.725 111.548 354.334 110.258 357C109.306 358.969 108.411 360.962 107.615 363C107.102 364.314 106.599 365.639 106.224 367C105.862 368.31 105.605 369.636 105.601 371C105.597 372.357 105.847 373.689 106.174 375C106.426 376.015 106.739 377.015 107.09 378C107.828 380.066 108.788 382.035 109.756 384C110.582 385.677 111.431 387.343 112.297 389C113.16 390.649 114.098 392.269 114.791 394C115.438 395.617 115.845 397.297 116.191 399C116.528 400.653 116.792 402.315 116.91 403.998C116.98 404.982 116.987 405.97 116.996 406.955L117 411L118.671 411.657L119.159 411.89L121.043 412.721L122.98 413.535L124.84 414.206L126.329 414.643L128 415L128.657 413.329L128.89 412.841L129.32 411.84L129.721 410.955L130.535 408.995C130.892 408.008 131.237 407.026 131.471 406C131.993 403.704 132.05 401.323 131.674 399C131.453 397.639 131.073 396.306 130.637 395C130.182 393.632 129.645 392.298 129.019 391C128.196 389.292 127.206 387.668 126.308 386L123.692 381L121.529 377L120.699 375L120.419 374L120.123 372L120.11 370.001L120.341 368.015L120.557 367.039L121.213 365.17C121.604 364.259 122.133 363.422 122.641 362.576L124.222 359.91C125.299 357.977 126.26 355.98 127.247 354L129.208 350L129.663 349C130.353 347.381 130.933 345.719 131.319 344L131.684 342L131.787 341L131.819 340L131.684 338L131.529 337L131.073 335L130.452 333L129.662 331L128.727 329C128.059 327.641 127.321 326.318 126.576 325L124.89 322C124.375 321.016 123.896 320.022 123.461 319L121.873 315C121.359 313.692 120.779 312.381 120.485 311C120.273 310.007 120.176 309.019 120.242 308.004C120.308 307.004 120.537 306.041 120.836 305.09C121.221 303.869 121.839 302.747 122.34 301.576C122.837 300.416 123.295 299.217 123.478 297.961L123.598 295.996L123.48 294.999L123.233 294L122.343 292.001L121.062 290.019L120.34 289.059L118.859 287.321L117.573 286.086L116 285z"/>
<path style="fill:#6d6d93; stroke:none;" d="M84.3333 297.667L84.3333 298.333L84.6667 298.333L84.6667 298L84.3333 297.667M83.3333 299.667L83.3333 300.333L83.6667 300.333L83.6667 300L83.3333 299.667z"/>
<path style="fill:#5d636f; stroke:none;" d="M127 301L126.415 302.671L126.358 303.159L126.16 304.16L126.034 306.025C125.997 307.349 125.988 308.676 126.004 310C126.02 311.333 126.019 312.677 126.213 314L126.637 316L126.966 317L127.796 319L129.753 323L133.243 330C134.488 332.552 135.78 335.149 136.149 338C136.409 340.008 136.177 342.033 135.746 344C135.448 345.364 135.035 346.698 134.533 348C134.14 349.02 133.684 350.013 133.215 351C132.405 352.704 131.501 354.356 130.576 356L128.324 360L127.363 362L126.638 364L126.39 365L126.213 366L126.043 368L126.015 369L126.005 371L126.093 374L126.185 375L126.529 377L126.789 378L127.479 380C128.451 382.459 129.866 384.694 131.139 387L132.73 390L133.687 392L134.536 394L135.25 396L135.826 398L136.241 400L136.4 402L136.362 403L136.061 405L135.556 407C135.247 408.013 134.909 409.007 134.541 410L133.75 411.999L133.103 413.985L132.952 414.957L133.241 416.786L134.361 418.351L135.164 419.005L136.061 419.583L137.98 420.516L139.84 421.205L140.841 421.491L141.329 421.643L143 422C143.693 420.949 144.414 419.921 145.059 418.84C146.385 416.613 147.608 414.332 148.741 412C149.38 410.684 149.984 409.357 150.532 408L150.895 407L151.467 405L151.775 403L151.816 402L151.786 401L151.529 399C151.164 396.933 150.484 394.926 149.663 393L149.208 392L147.247 388L145.247 384.001L143.742 381.039L141.213 376.576L140.815 375.715L140.498 374.83L140.275 373.91L140.073 371.989L140.134 370.039L140.264 369.09L140.471 368.17L141.105 366.424L142.378 363.83L143.778 360.985C145.084 358.325 146.439 355.686 147.691 353C148.303 351.689 148.858 350.347 149.385 349C150.024 347.365 150.645 345.705 151.072 344L151.493 342L151.609 341L151.653 340L151.496 338L151.096 336L150.84 335C150.586 333.988 150.266 332.979 149.907 332C149.533 330.981 149.119 329.968 148.626 329C147.755 327.292 146.789 325.639 145.796 324C144.977 322.648 144.141 321.308 143.255 320L140.421 316L136.849 311C135.87 309.659 134.891 308.313 133.87 307.005L133.113 306.019L131.561 304.149L129.987 302.61L128.63 301.654L127 301z"/>
<path style="fill:#676f7d; stroke:none;" d="M121 302C120.691 303.667 120.34 305.331 120.169 307.02C119.968 309.006 120.006 311.007 120 313L120.589 311.914L120.657 311.483L120.879 310.679L120.996 309.862L121.407 307.014L121.541 306.058L121.67 304.321L121.553 303.517L121.543 303.086L121 302z"/>
<path style="fill:#5d636f; stroke:none;" d="M396 313L394.37 314.671L393.014 316.16L392.26 317.045L390.72 319.005L390.035 320.002L389.449 321L388.982 322L388.516 324C388.442 325.01 388.652 326.051 388.985 327L389.353 328L391.124 332C391.79 333.62 392.384 335.264 392.667 337C392.939 338.663 392.921 340.333 392.695 342C392.558 343.016 392.321 344.007 392.073 345L391.452 347L390.663 349L390.208 350L389.243 352L385.756 359L384.312 362L383.468 364L382.789 366L382.529 367L382.329 368L382.108 370C381.995 372.027 382.235 374.048 382.789 376C383.481 378.444 384.641 380.729 385.756 383C387.558 386.667 389.456 390.287 391.163 394L392.065 396L392.497 397L393.246 399L393.525 400L393.816 402L393.707 404L393.497 405L392.787 407C392.164 408.358 391.463 409.674 390.776 411C389.91 412.674 389.051 414.351 388.139 416L385.905 419.975L385 421.84L384.429 423.329L384 425L385.671 424.643L387.16 424.206L389.025 423.532L391.002 422.688C392.345 422.065 393.676 421.416 395 420.752C396.346 420.076 397.686 419.392 398.996 418.648L400.96 417.363L402.812 415.787C404.488 414.147 405.865 412.165 406.772 410C407.308 408.719 407.637 407.375 407.812 406C407.938 405.006 407.963 404.001 407.985 403L407.985 401L407.907 399L407.815 398L407.471 396C407.069 394.26 406.405 392.602 405.626 391C404.626 388.945 403.39 387.012 402.309 385C400.929 382.428 399.648 379.783 398.75 377C398.431 376.011 398.172 375.012 397.939 374L397.638 372L397.638 370C397.712 368.987 397.929 367.983 398.174 367C398.426 365.985 398.739 364.985 399.09 364C399.828 361.933 400.79 359.966 401.756 358L404.752 352L406.204 349C406.644 348.022 407.069 347.035 407.363 346L407.787 344L407.895 343L407.981 341C408.016 338.993 407.921 336.962 407.471 335C406.99 332.906 406.126 330.938 405.218 329C404.426 327.309 403.569 325.648 402.691 324L401 321L399.31 318.019L398.269 316.138L397.815 315.321L397.258 314.517L397.011 314.086L396 313M81 314L81 348L81 353L80.9861 357L80.9244 358.995L80.8071 360.955L80.7415 361.84L80.7631 362.841L80.7269 363.329L81 365L82.2454 363.914L82.5432 363.483L83.1883 362.679L84.2284 360.941L86.3086 357L87.9969 354C88.5564 353.01 89.1279 352.024 89.6258 351C90.5562 349.087 91.3024 347.101 91.6713 345C91.9021 343.686 91.9815 342.333 91.9815 341C91.9815 339.665 91.9749 338.327 91.8148 337C91.6921 335.983 91.4911 334.985 91.2114 334C90.72 332.269 89.978 330.626 89.2184 329C88.4322 327.317 87.5834 325.662 86.7531 324L84.2485 319.019C83.782 318.114 83.3235 317.202 82.8117 316.321L82.2577 315.517L82.0108 315.086L81 314z"/>
<path style="fill:#656d7b; stroke:none;" d="M80 317L80 363L80.5849 361.914L80.642 361.483L80.8395 360.679C80.9819 359.457 80.9823 358.224 80.9969 356.995L81 351L81 330L80.9969 323.005C80.9823 321.776 80.9819 320.543 80.8395 319.321L80.642 318.517L80.5849 318.086L80 317z"/>
<path style="fill:#5d636f; stroke:none;" d="M362 435L363.671 434.886L365.16 434.609L367.025 434.034L368.005 433.648C369.017 433.204 370.008 432.727 370.999 432.239L371.996 431.737L373.957 430.648L375.787 429.363L377.363 427.787L378.034 426.895L378.648 425.957L379.738 423.996L380.243 422.999L382.247 419L384.247 415C385.39 412.706 386.599 410.424 387.452 408C387.913 406.692 388.249 405.359 388.518 404L388.736 402L388.736 401L388.66 400L388.316 398C388.094 396.98 387.78 395.99 387.452 395L386.663 393L386.208 392L385.243 390L381.756 383C380.641 380.729 379.482 378.444 378.789 376C378.147 373.738 377.915 371.345 378.108 369C378.192 367.983 378.353 366.988 378.61 366C378.875 364.978 379.243 363.985 379.62 363C380.14 361.638 380.737 360.312 381.37 359L381.889 358L384.111 354C385.294 351.747 386.293 349.401 387.135 347C387.596 345.687 388.014 344.359 388.319 343C388.541 342.014 388.726 341.011 388.786 340L388.776 338L388.479 336.002C388.209 334.691 387.775 333.427 387.354 332.16L386.957 331.159L386.783 330.671L386 329L384.329 329.654L382.854 330.61C381.913 331.368 380.988 332.155 380.181 333.059C379.338 334.002 378.509 334.958 377.789 336.001L376.468 338L375.313 340C374.611 341.316 373.936 342.646 373.309 344L370.691 350C370.064 351.354 369.388 352.682 368.691 354L367.576 356L365.865 359L364.824 361L363.969 363C363.624 363.969 363.336 364.975 363.213 366C363.014 367.661 362.993 369.329 363.005 371C363.019 373.014 363.074 375.028 363.529 377C363.767 378.03 364.112 379.011 364.479 380L365.374 382L365.89 383L367.576 386C369.202 388.904 370.796 391.854 371.909 395C372.705 397.25 373.3 399.598 373.26 402C373.243 403.016 373.091 404.002 372.917 405L372.398 407L372.048 408L371.204 410L370.243 412L368.247 416L366.756 419L365.312 422C364.575 423.636 363.936 425.302 363.36 427C363.029 427.973 362.739 428.971 362.518 429.975L362.184 431.84L362.093 432.841L362.042 433.329L362 435M156 338C155.971 339.34 156.019 340.713 155.815 342.045L155.471 344.005L155.211 345.002L154.532 347C153.882 348.715 153.051 350.356 152.244 352L148.756 359L147.312 362L146.468 364L145.789 366C145.487 366.969 145.302 367.993 145.189 369C144.924 371.35 145.145 373.728 145.789 376C146.481 378.444 147.641 380.729 148.756 383L151.752 389L153.702 392.961L155.065 395.715C155.476 396.564 155.93 397.394 156.247 398.285C156.565 399.182 156.769 400.092 156.855 401.039C157.006 402.708 156.815 404.406 156.301 406C155.729 407.772 154.741 409.375 153.856 411L151.144 416L150.043 417.998L149.074 419.975L148.419 421.84L148.222 422.841L148 425L149.671 425.857L150.159 426.134C151.742 426.979 153.312 427.844 154.977 428.521L156.84 429.205L157.841 429.491L158.329 429.643L160 430L160.66 428.329L160.901 427.841L161.349 426.84L162.756 423.995L166.247 417C166.91 415.67 167.597 414.35 168.218 413L168.688 412L169.532 410C169.891 409.011 170.235 408.028 170.471 407C170.848 405.356 170.958 403.682 170.981 402C171.005 400.334 170.96 398.644 170.671 397L170.211 395L169.532 393L168.676 391L167.68 389C166.984 387.637 166.175 386.333 165.424 385C164.5 383.359 163.587 381.711 162.796 380C162.193 378.697 161.64 377.376 161.225 376C160.832 374.7 160.529 373.361 160.475 372C160.406 370.298 160.739 368.639 161.163 367C161.79 364.574 162.703 362.245 163.809 360L165.405 357L165.938 356C166.402 355.054 166.895 354.063 167.022 353L167.069 352L166.589 350L166.102 349L164.822 347L163.33 345.001L162.537 344.005L160.851 342.059L159.121 340.321L158.144 339.517L157.667 339.086L156 338M451 346L450.574 347.671L450.384 348.159L450.028 349.16L449.2 351.025C448.548 352.37 447.862 353.692 447.139 355L445.425 358L444.324 360L443.824 361C443.348 361.96 442.934 362.969 442.638 364C441.985 366.272 441.988 368.656 442.005 371C442.019 373.014 442.074 375.028 442.529 377C443.189 379.859 444.537 382.488 446.019 384.999C446.609 386 447.229 386.979 447.88 387.941L449.219 389.679L450.442 390.914L452 392L452.585 390.329L452.642 389.841L452.84 388.84L452.966 386.975L453 383L453 375L453 346L451 346M180 440L180.004 435.955C180.016 434.636 180.03 433.313 180.174 432L180.468 430L180.927 428L181.548 426L182.337 424L182.792 423L184.753 419L187.244 414C188.359 411.729 189.518 409.444 190.211 407C190.675 405.366 190.906 403.697 190.945 402C190.992 399.971 190.766 397.954 190.211 396C189.518 393.556 188.359 391.271 187.244 389L183.248 381L181.796 378L180.966 376L180.391 374L180.217 373L180.083 371C180.051 368.698 180.553 366.434 180.83 364.16L180.958 362.671L181 361L179.329 360.451L178.841 360.257L176.955 359.495L174.002 358.243L173.015 357.951L171.105 357.877L170.213 358.16L169.39 358.658L168.638 359.336L167.367 361.059L166.84 362.019L166.367 363.005L165.638 365L165.39 366L165.213 367L165.044 369C164.974 370.331 165.021 371.67 165.093 373L165.185 374L165.529 376L165.789 377L166.108 378L166.904 380C167.981 382.428 169.436 384.664 170.691 387C172.076 389.581 173.328 392.235 174.301 395C174.649 395.99 174.956 396.989 175.235 398L175.468 399L175.635 400C175.792 400.988 175.757 402.01 175.659 403L175.316 405L175.072 406L174.452 408L173.663 410L172.243 413L169.753 418L167.782 422C167.319 422.992 166.877 423.985 166.468 425L165.808 426.999L165.588 427.996L165.477 428.985L165.697 430.907L166.068 431.815L167.322 433.471L168.149 434.211L170.019 435.532L171.005 436.12L172.998 437.19L174.975 438.121C176.083 438.596 177.197 439.04 178.329 439.454L180 440M358 439L358.001 435.84L358.04 432.995L358.185 431C358.321 429.636 358.672 428.297 359.105 427C359.799 424.924 360.793 422.96 361.756 421L365.244 414C366.51 411.423 367.829 408.818 368.471 406L368.811 404L368.892 403L368.92 402L368.811 400L368.671 399L368.211 397C367.519 394.556 366.359 392.271 365.244 390L361.753 383C361.091 381.672 360.406 380.353 359.796 379C359.212 377.703 358.69 376.395 358.39 375L358.109 373L358.058 372L358.055 371L358.171 369L358.42 367.001L358.656 365.019L358.682 364.059L358.593 363.148L357.958 361.607L357.393 361.042L356.681 360.643L355.852 360.408L353.981 360.359L351.999 360.674L350.004 361.16L348.044 361.765L347.108 362.133L345.419 363.089L344.09 364.419L343.149 366.108L342.808 367.044L342.548 368.015L342.37 369.004L342.279 370.001L342.366 372L342.532 373L342.765 374L343.36 376C343.911 377.706 344.59 379.36 345.312 381C345.758 382.015 346.267 383.005 346.756 384L349.752 390C351.172 392.868 352.719 395.786 353.15 399C353.327 400.323 353.301 401.673 353.18 403C353.058 404.34 352.928 405.686 352.623 407C352.384 408.032 352.044 409.018 351.648 410L351.204 411L350.24 413L348.691 416L347.576 418L345.89 421C345.209 422.293 344.582 423.615 344.108 425C343.772 425.98 343.506 426.978 343.329 428C343.156 428.994 343.088 429.994 343.04 431L343.008 433L343.04 435L343.189 436.995L343.573 438.941L344.318 440.678L345.514 441.929L347.133 442.472L348.055 442.473L350.005 442.076L350.999 441.752L352.975 440.999L355.841 439.84L356.329 439.631L358 439M206 452L205.775 450.329L205.632 449.841L205.39 448.84L204.756 446.975C204.251 445.637 203.707 444.317 203.15 443C202.586 441.668 201.974 440.354 201.465 439L200.789 437L200.533 436L200.343 435L200.225 434L200.214 432C200.274 430.997 200.44 429.975 200.681 429C200.931 427.991 201.184 426.976 201.548 426L202.337 424L203.757 421L204.753 419L206.781 415L207.853 413L208.913 411L209.698 409L209.843 407C209.705 405.9 209.183 404.929 208.613 404C207.965 402.945 207.162 401.987 206.42 401C205.425 399.678 204.406 398.376 203.45 397.025L200 392L201.67 391.88C203.225 391.85 204.776 391.926 206.33 391.974L208 392L207.544 390.329L206.908 388.84L205.895 386.975L203.518 383C202.978 382.037 202.52 381.028 202.119 380C201.739 379.025 201.422 378.013 201.16 377C200.732 375.35 200.356 373.698 200.174 372C200.032 370.687 200.016 369.364 200.004 368.045L200 364L196.84 363.404L193.995 362.921L192.999 362.758L191.015 362.487L190.044 362.434L189.108 362.488L187.419 363.067L186.703 363.618L186.09 364.322L185.152 366.059L184.573 368.005L184.42 369.001L184.359 370L184.505 372L184.684 373C184.979 374.35 185.319 375.686 185.749 377C186.195 378.363 186.724 379.692 187.312 381L188.756 384L192.243 391C193.49 393.556 194.771 396.147 195.15 399C195.37 400.664 195.255 402.343 195.037 404C194.904 405.012 194.708 406.004 194.485 407L194.215 408L193.532 410L192.687 412C192.057 413.351 191.396 414.686 190.691 416C189.098 418.967 187.206 421.794 186.108 425C185.772 425.981 185.506 426.978 185.329 428C185.156 428.994 185.088 429.994 185.04 431C184.977 432.331 185.001 433.669 185.044 435L185.109 436L185.228 437L185.742 438.996L186.179 439.985L186.742 440.957L188.228 442.787C190.131 444.759 192.593 446.01 195 447.243C196.65 448.088 198.314 448.907 199.995 449.688C200.93 450.123 201.884 450.512 202.84 450.898L204.329 451.454L206 452z"/>
<path style="fill:#676d7b; stroke:none;" d="M121 363L120.688 364.671C120.543 365.459 120.378 366.248 120.286 367.045L120.169 368.025L120.09 369.005C120.028 370.328 119.997 371.652 120.091 372.975L120.289 374.84L120.478 375.841L120.568 376.329L121 378L121.487 376.914L121.475 376.483L121.553 375.679C121.446 374.117 121.174 372.568 121.178 370.999C121.182 369.672 121.387 368.373 121.542 367.059L121.67 365.321L121.553 364.517L121.543 364.086L121 363z"/>
<path style="fill:#5d636f; stroke:none;" d="M337 363L335.329 363.327C333.536 363.733 331.762 364.201 329.999 364.721L328.015 365.36L327.044 365.714L325.228 366.558L324.434 367.086L323.746 367.702L322.782 369.225L322.527 370.108L322.434 372.015L322.562 373.004L322.776 374.001L323.36 376C323.686 377.016 324.069 378.01 324.465 379L325.377 381L326.479 383C327.297 384.417 328.305 385.714 329.309 387L330.945 389L331.722 390L332.976 392C333.485 392.92 333.693 393.975 333.852 395L333.98 397L333.985 399C333.956 399.998 333.953 401.007 333.826 402L333.532 404C333.248 405.356 332.913 406.692 332.452 408C331.845 409.723 331.043 411.361 330.243 413L327.753 418C327.09 419.33 326.403 420.65 325.782 422C325.325 422.993 324.858 423.978 324.468 425C323.97 426.299 323.567 427.628 323.329 429C323.156 429.996 323.099 430.992 323.055 432L323.055 433L323.186 435L323.529 437L323.789 438L324.105 439L324.877 441L325.785 442.999L326.799 444.981C327.491 446.211 328.253 447.504 329.39 448.382L331.105 449.303L332.043 449.497L333.015 449.522L334.003 449.408L334.996 449.177L336.938 448.427L338.642 447.297L339.303 446.581L339.788 445.775L340.072 444.892L340.168 443.956L340.106 442.985L339.711 440.999C339.413 439.665 339.062 438.345 338.812 437L338.478 435L338.379 434L338.341 433L338.379 432L338.479 431C338.681 429.653 338.93 428.312 339.301 427C339.59 425.977 339.938 424.981 340.348 424C340.774 422.98 341.273 421.993 341.757 421L345.742 413L346.688 411L347.532 409L348.211 407C348.514 406.029 348.693 405.008 348.814 404L348.945 402L348.903 400L348.814 399L348.671 398L348.211 396C347.518 393.556 346.359 391.271 345.244 389L341.756 382C340.949 380.356 340.117 378.715 339.468 377L338.789 375L338.529 374L338.185 372C338.019 370.682 338.024 369.349 337.97 368.025L337.84 366.16L337.642 365.159L337.585 364.671L337 363z"/>
<path style="fill:#676f7d; stroke:none;" d="M140 366L140 377L140.585 375.914L140.642 375.483L140.84 374.679L140.907 373.862L140.965 372.942L140.983 371.014C140.972 370.117 140.943 369.213 140.84 368.321L140.642 367.517L140.585 367.086L140 366z"/>
<path style="fill:#5d636f; stroke:none;" d="M229 395L228.574 393.329L228.383 392.841L227.637 390.955L226.676 388.995L225.575 387C224.266 384.707 222.916 382.434 221.88 380C221.461 379.018 221.087 378.021 220.774 377C220.372 375.689 220.082 374.347 219.808 373.005L219.29 370.16L219.168 369.159L219.098 368.671L219 367L217.329 366.817L216.841 366.725L214.955 366.425L212.995 366.17C212 366.089 211.004 366.015 210.005 366.034L208.059 366.149L207.148 366.318L205.603 367.028L204.607 368.318L204.333 369.148L204.188 370.059L204.204 372.005L204.33 373.001L204.761 375C205.019 376.014 205.35 377.015 205.7 378C206.184 379.364 206.734 380.701 207.373 382C208.219 383.716 209.207 385.368 210.204 386.999C210.812 387.992 211.408 389 212.093 389.942C212.753 390.848 213.456 391.723 214.329 392.436L216.093 393.566L217.04 393.968L218.015 394.276L220.001 394.695C221.64 394.961 223.3 394.969 224.955 394.996L229 395M308.019 368.483L306.148 369.032L305.319 369.434L304.042 370.564L303.411 372.144L303.387 374.019L303.793 376.001L304.468 378L305.313 380C306.237 382.057 307.321 384.035 308.424 386L309.579 387.995L310.154 388.981C311.041 390.433 311.904 392.037 313.39 392.971L315.105 393.667L316.043 393.812L317.015 393.851L318.003 393.806L318.996 393.691L320.941 393.276L322.678 392.566L323.929 391.436L324.469 389.856L324.304 387.981L323.644 385.999L322.738 384L321.262 381C320.64 379.688 320.032 378.37 319.548 377L318.923 375.001L318.661 374.005C318.397 373.055 318.223 372.066 317.856 371.148L317.487 370.318L316.411 369.028C315.717 368.499 314.798 368.237 313.941 368.152L311.995 368.059L310.001 368.175L308.019 368.483M224 369L224.015 370.671L224.093 372.16C224.191 373.119 224.309 374.065 224.529 375.005C225.019 377.097 225.874 379.061 226.782 381C227.574 382.691 228.431 384.352 229.309 386L231.001 389L232.154 390.996L232.735 391.985L233.324 392.956L234.634 394.772L236.213 396.272L237.105 396.86L239.015 397.736L241.001 398.316C241.991 398.531 242.984 398.734 243.995 398.826L245.955 398.961L250 399L249.886 397.329L249.789 396.841L249.362 394.955L248.637 392.995L247.676 391L245.424 387L244.309 385C243.439 383.346 242.581 381.689 241.781 380L240.424 377.004L239.996 376.015L239.096 374.109L238.586 373.228L237.351 371.738L236.606 371.164L234.895 370.344L233.957 370.059L231.996 369.62C231.011 369.426 230.021 369.289 229.025 369.171L227.16 369.039L226.159 369.015L224 369M284 373L284.046 374.671L284.104 375.159L284.213 376.16L284.638 378.025C285.157 379.776 286 381.4 286.865 383L289.691 388L291.241 390.995L292.651 393.84L293.099 394.841L293.34 395.329L294 397C296.995 396.998 300.017 397.094 302.975 396.542L304.84 396.126L305.841 395.809L306.329 395.683L308 395L307.574 393.329L307.025 391.84C306.608 390.876 306.171 389.922 305.676 388.995L304.576 387L302.889 384C302.37 383.014 301.897 382.015 301.439 381L300.604 379L299.381 376.019L298.945 375.059L297.925 373.318L297.301 372.603L295.775 371.607L293.956 371.188L292.985 371.149L291.996 371.193L290.005 371.465L288.045 371.893L284 373M244 372L244.046 373.671L244.104 374.159L244.213 375.16L244.638 377.025C245.266 379.144 246.354 381.081 247.425 383L248.576 385L250.219 388C251.085 389.646 251.894 391.318 252.688 393L253.552 394.995L254.36 396.942L254.789 397.856L255.843 399.436L256.51 400.062L258.133 400.968L259.055 401.276L261.005 401.695L263 401.909L264.995 401.971L265.975 401.962L267.84 401.84L268.841 401.642L269.329 401.585L271 401L270.586 399.329L270.412 398.841L270.09 397.84C269.351 395.868 268.568 393.915 267.691 392C266.919 390.313 266.075 388.66 265.247 387L263.244 383L262.218 381.001L261.123 379.019L260.532 378.058L259.895 377.144L259.211 376.303L257.671 374.938C255.999 373.784 253.953 373.444 251.999 373.085L250.005 372.754L247.16 372.287L246.159 372.167L245.671 372.098L244 372M265 376L265.228 377.671L265.638 379.16L266.352 381.025L267.757 384L269.753 388C270.748 389.992 271.738 391.984 272.688 393.998L273.532 395.975L274.206 397.84L274.643 399.329L275 401L276.671 400.958L278.16 400.83L281.005 400.409L282.995 400.061L283.981 399.861L285.848 399.272L286.667 398.825L287.879 397.566L288.353 395.891L288.319 394.956L288.141 393.985L287.466 391.999L286.51 390L284.858 387L283.258 384L282.244 382L281.204 380.005L280.648 379.02L280.034 378.062L279.363 377.163L278.61 376.357L276.895 375.198C275.349 374.504 273.63 374.737 272.002 374.864C270.721 374.964 269.43 375.084 268.16 375.285L266.671 375.568L265 376z"/>
<path style="fill:#656d7b; stroke:none;" d="M80 375L80 393L80.5849 391.914L80.642 391.483L80.8395 390.679C80.9438 389.784 80.9638 388.881 80.9861 387.981L81.0139 383L81.1613 379.059L81.125 377.321L80.8881 376.517L80.8341 376.086L80 375z"/>
<path style="fill:#5d636f; stroke:none;" d="M81 377L81 394L82.6713 394.63L83.159 394.836L85.0401 395.566C85.964 395.904 86.8944 396.203 87.841 396.471L89.3287 396.801L91 397L90.7716 395.329L90.3619 393.84L89.6481 391.975L88.2431 389L86.7531 386C85.9255 384.345 85.0946 382.693 84.2276 381.059L83.1883 379.321L82.5432 378.517L82.2454 378.086L81 377z"/>
<path style="fill:#676f7d; stroke:none;" d="M156 397C155.994 399.001 156.028 401.006 155.83 403C155.736 403.954 155.574 404.894 155.425 405.84L155.275 406.841L155.183 407.329L155 409L155.897 407.914L156.047 407.483L156.421 406.679L156.797 404.941C156.908 403.966 156.965 402.999 156.971 402.018C156.975 401.12 156.942 400.214 156.84 399.321L156.642 398.517L156.585 398.086L156 397z"/>
<path style="fill:#696f7d; stroke:none;" d="M393 398C392.986 399.67 393.002 401.336 392.831 403C392.659 404.682 392.308 406.34 392 408L393.017 406.914L393.164 406.483L393.55 405.679L393.873 403.946L393.948 402.054L393.839 400.321L393.642 399.517L393.585 399.086L393 398z"/>
<path style="fill:#5d636f; stroke:none;" d="M327 402L319.8 411C318.728 412.337 317.67 413.689 316.561 414.996C315.715 415.993 314.854 416.985 313.91 417.892C312.714 419.042 311.439 420.073 310.015 420.93L307.225 422.514L305.703 423.698L305.09 424.418L304.148 426.108L303.533 428.015L303.33 429.004L303.189 430.001L303.08 432L303.188 434L303.326 435L303.518 436L304.043 438C304.647 440.057 305.428 442.076 306.373 444C307.214 445.71 308.214 447.336 309.14 449L311.29 452.975L312.863 455.841L313.142 456.329L314 458L315.671 457.801L317.16 457.47L318.045 457.211L320 456.517L321.938 455.583L323.638 454.351L324.289 453.606L324.748 452.786L324.978 451.895C325.118 450.886 324.785 449.913 324.412 448.996L323.404 447L322.309 445C321.115 442.742 319.972 440.449 319.221 438C318.918 437.01 318.692 436.018 318.508 435L318.358 433L318.416 432C318.543 430.639 318.925 429.291 319.36 428C319.7 426.992 320.044 425.982 320.453 425L321.312 423L322.756 420L324.742 416C325.531 414.351 326.301 412.696 326.985 411L327.756 409.002L328.39 407.025L328.621 406.045L328.897 404.159L328.954 403.671L329 402L327 402M213 412C212.307 413.051 211.586 414.079 210.941 415.16C209.426 417.703 208.037 420.319 206.782 423C205.588 425.548 204.479 428.172 204.2 431L204.133 433L204.2 434L204.333 435L204.789 437L205.468 439L206.312 441L207.759 444C208.783 446.047 209.835 448.093 211.105 450L212.529 451.999L213.329 452.996L215.093 454.957L216.04 455.895L217.015 456.787L219.001 458.363C220.561 459.485 222.273 460.378 223.998 461.215C225.736 462.056 227.516 462.791 229.329 463.454L231 464L230.898 462.329L230.817 461.841L230.671 460.84L230.211 458.975C229.5 456.543 228.357 454.266 227.244 452L222.756 443C221.641 440.73 220.478 438.444 219.789 436L219.333 434.001L219.204 433.004L219.169 431.039L219.459 429.17C219.72 427.99 220.265 426.893 220.529 425.715C220.734 424.803 220.819 423.894 220.732 422.961L220.343 420.996L219.994 419.999L219.559 419.002L219.035 418.005L217.829 416.045C216.91 414.678 215.953 413.343 215 412L213 412z"/>
<path style="fill:#676f7d; stroke:none;" d="M226 422L227.086 422.585L227.517 422.642L228.321 422.84L230.059 422.966L232.005 422.998L234.995 423.04C235.95 423.084 236.892 423.163 237.84 423.289L239.329 423.568L241 424L240.346 422.983L240.005 422.836L239.39 422.45L237.851 422.124C236.568 422.009 235.286 422.009 233.999 422.001L226 422M248 422L249.086 422.585L249.517 422.642L250.321 422.84C251.543 422.982 252.775 422.982 254.003 422.997L261 423L259.914 422.415L259.483 422.358L258.679 422.16C257.457 422.018 256.225 422.018 254.997 422.003L248 422z"/>
<path style="fill:#5d636f; stroke:none;" d="M270 479L271.671 478.643L273.16 478.206L275.025 477.532L277.002 476.688C278.679 475.897 280.35 475.092 281.999 474.243L282.996 473.738L284.956 472.648L286.772 471.363L288.258 469.787L289.258 467.957L289.566 466.985L289.877 464.999L289.916 464L289.812 462C289.664 460.638 289.342 459.312 288.957 458C288.146 455.237 287.007 452.577 285.731 450L283.109 445C282.28 443.37 281.506 441.719 280.877 440C280.515 439.012 280.21 438.013 279.928 437L279.694 436L279.39 434C279.311 432.991 279.365 432.005 279.464 431L279.831 428.005C280.015 426.006 279.994 424.005 280 422L272.998 422.001L270.019 422.059L268.133 422.318L266.513 423.028L265.854 423.603L265.303 424.318L264.854 425.148L264.175 427.019L263.684 429.001L263.504 430L263.39 431L263.39 433L263.684 435L264.16 437L264.75 439C265.1 440.017 265.463 441.018 265.904 442C266.679 443.729 267.652 445.349 268.576 447L269.691 449L271.255 452L272.293 454C272.799 454.995 273.35 455.971 273.787 457C274.202 457.976 274.526 458.958 274.725 460C274.914 460.984 274.962 462.001 274.963 463C274.964 464.346 274.847 465.689 274.529 467C274.279 468.032 273.897 469.02 273.497 470L271.746 473.975L270.961 475.84L270.613 476.841L270.425 477.329L270 479z"/>
<path style="fill:#676f7d; stroke:none;" d="M288 422L289.086 422.585L289.517 422.642L290.321 422.84C291.535 422.981 292.76 422.982 293.98 422.997L299 423L297.914 422.415L297.483 422.358L296.679 422.16C295.465 422.019 294.24 422.018 293.02 422.003L288 422z"/>
<path style="fill:#5d636f; stroke:none;" d="M240 423L233.995 423L231.005 423.019L229.058 423.148L228.144 423.318L226.564 424.028L225.938 424.603L225.032 426.148L224.724 427.059L224.483 428.019L224.178 430.001C224.103 431.004 224.052 431.994 224.108 433C224.164 434.011 224.305 435.01 224.518 436C224.736 437.016 225.038 438.013 225.36 439C225.69 440.015 226.069 441.009 226.465 442L226.9 443L227.89 445L229.576 448C230.849 450.277 232.118 452.567 233.073 455C233.461 455.986 233.777 456.983 234.073 458L234.552 459.999C234.781 460.983 234.918 461.996 235.228 462.96L235.564 463.907L236.6 465.671L238.148 467.2L239.059 467.867L240.019 468.467L241.005 469L242.001 469.466L242.999 469.862L244.981 470.409L246.852 470.497L247.682 470.303L248.397 469.932L248.972 469.382L249.397 468.678L249.852 466.941C249.965 465.963 249.988 464.983 249.992 463.999C249.995 463.002 249.988 461.995 249.907 461C249.797 459.652 249.615 458.296 249.211 457L248.532 455L247.688 453L246.244 450L244.247 446.001L242.742 443.039L241.707 441.17L241.182 440.285C240.538 439.171 239.87 438.074 239.498 436.83C239.032 435.271 239.007 433.613 239.019 431.999C239.029 430.668 239.117 429.345 239.285 428.025L239.575 426.16L239.725 425.159L239.817 424.671L240 423M246 423L244.864 426.16L244.603 427.045L244.21 429.005L244.105 430.002L244.047 431C244.022 432.334 244.021 433.675 244.21 435L244.61 437L245.244 439L245.619 440C245.991 441.014 246.426 442.012 246.862 443C247.757 445.033 248.762 447.013 249.753 449L252.258 454L253.293 456L254.319 458C254.777 458.968 255.226 459.949 255.462 461L255.694 463L255.518 465L255.115 467L254.67 468.999L254.359 470.985L254.322 471.957L254.643 473.786L255.042 474.606L256.319 476.005L257.148 476.583L258.057 477.08L259.98 477.891L261.84 478.47L263.329 478.801L265 479L265.66 477.329L265.901 476.841L266.349 475.84L267.258 473.975C268.033 472.351 268.869 470.741 269.363 469L269.787 467L269.894 466L269.97 464L269.956 463C269.904 461.993 269.845 460.995 269.671 460C269.431 458.628 269.03 457.3 268.532 456C268.142 454.979 267.681 453.989 267.218 453L265.247 449L262.757 444C262.274 443.007 261.774 442.02 261.348 441C260.938 440.02 260.588 439.023 260.302 438L259.834 436C259.661 435.002 259.494 434.015 259.459 433C259.412 431.66 259.566 430.327 259.769 429.005C259.992 427.552 260.248 426.107 260.564 424.671L261 423L246 423M295 467L296.671 466.801L297.159 466.681L298.16 466.47C299.124 466.201 300.077 465.897 301.005 465.521L302.995 464.622L303.981 464.095L304.941 463.521L305.851 462.892L306.678 462.211L307.381 461.471L308.292 459.815L308.461 457.96L308.304 456.985L308.015 455.996L307.203 454L306.243 452L304.247 448L301.753 443C301.091 441.672 300.406 440.353 299.796 439C299.356 438.022 298.929 437.035 298.637 436L298.217 434L298.083 432L298.174 430.002L298.286 429.005L298.714 426.16L298.902 424.671L299 423L294.955 423L291.999 423.005L290.015 423.059L289.044 423.148L287.225 423.603L286.419 424.028L285.703 424.603L285.09 425.318L284.148 427.059L283.534 429.005L283.2 431L283.133 433L283.2 434L283.53 436C284.163 438.818 285.492 441.426 286.756 444L290.244 451L291.688 454C292.268 455.302 292.83 456.628 293.226 458L293.761 459.998L294.56 463.84L294.721 464.841L294.816 465.329L295 467z"/>
<path style="fill:#697581; stroke:none;" d="M239 426L239 439L239.585 437.914L239.642 437.483L239.84 436.679C239.982 435.458 239.987 434.224 239.996 432.996L239.966 430.059L239.84 428.321L239.642 427.517L239.585 427.086L239 426z"/>
<path style="fill:#696f7f; stroke:none;" d="M219 427L219 436L219.585 434.914L219.642 434.483L219.839 433.68L219.952 431.96L219.952 431.04L219.839 429.32L219.642 428.517L219.585 428.086L219 427z"/>
<path style="fill:#69717f; stroke:none;" d="M298 427L298 437L298.585 435.914L298.642 435.483L298.84 434.679C298.942 433.791 298.972 432.893 298.972 432C298.972 431.107 298.942 430.209 298.84 429.321L298.642 428.517L298.585 428.086L298 427z"/>
<path style="fill:#676f83; stroke:none;" d="M274 457L274 469L274.585 467.914L274.642 467.483L274.84 466.679C274.981 465.46 274.994 464.225 274.994 463C274.994 461.775 274.981 460.54 274.84 459.321L274.642 458.517L274.585 458.086L274 457z"/>
<path style="fill:#6b717d; stroke:none;" d="M255 459L254.958 460.671L254.83 462.16L254.17 466.84L254.042 468.329L254 470L254.683 468.914L254.809 468.483L255.126 467.679C255.372 466.796 255.572 465.894 255.698 464.986C255.866 463.767 255.927 462.549 255.825 461.321L255.638 460.517L255.584 460.086L255 459z"/>
</svg>
