<?xml version="1.0" standalone="yes"?>
<svg xmlns="http://www.w3.org/2000/svg" width="534" height="496">
<path style="fill:#1d1f23; stroke:none;" d="M0 0L0 496L534 496L534 0L0 0M198 17C214.243 52.2123 226.632 89.765 240.432 126C248.169 146.314 260.539 168.532 264 190C257.561 190.878 244.644 196.053 238.592 193.223C233.478 190.832 230.46 175.112 228.652 170C220.429 146.753 209.739 123.684 203 100C186.584 134.01 188.527 176.113 174 211L172 211C159.047 191.769 145.002 173.222 132 154C124.37 142.721 116.614 127.595 106 119L107 218C98.338 218.761 89.5543 220.429 81 222L81 38C89.8961 46.2191 96.1614 58.1451 103.144 68C122.773 95.7059 140.156 126.814 163 152C171.526 121.547 178.457 90.6724 186.126 60C189.471 46.6179 190.945 28.8974 198 17M336 18C343.047 28.0977 344.407 45.129 347.374 57C355.243 88.4754 359.527 124.046 372 154C384.292 129.016 404.921 106.028 420.649 83C430.223 68.984 439.713 49.6656 453 39L453 222C447.064 220.91 432.034 221.366 428.15 216.31C424.252 211.236 426.993 196.235 427 190C427.03 165.397 428.985 140.604 429 116C404.153 145.618 384.524 180.551 362 212C355.688 204.222 354.957 190.509 352.286 181C344.714 154.049 337.77 126.393 332 99C321.772 121.171 314.439 145.072 306.062 168C303.89 173.945 301.207 189.452 295.507 192.736C290.065 195.871 275.411 191.21 270 189C282.103 152.161 297.766 116.238 311.568 80C319.083 60.2664 324.718 35.8207 336 18M205 173.532C220.424 169.37 227.457 193.447 211.999 198.267C196.258 203.174 188.232 178.056 205 173.532M324 173.407C340.11 170.938 344.286 196.286 328 198.718C311.588 201.169 307.482 175.939 324 173.407M400 186.505C416.104 184.95 418.33 210.901 402 212.286C385.49 213.686 383.559 188.093 400 186.505M129.003 187.521C144.206 183.133 153.382 206.25 137.989 211.27C121.916 216.512 112.776 192.205 129.003 187.521M453 336C447.515 329.065 440.083 316.111 441.721 307C444.148 293.5 461.991 274.555 444 264C445.578 269.574 448.514 275.05 447.622 281C446.173 290.662 438.05 298.267 437.287 308C436.452 318.656 445.905 326.915 447.621 337C449.744 349.479 437.41 358.762 437.4 371C437.393 378.85 446.748 387.808 445.016 394.855C443.892 399.427 436.937 401.218 433 402C431.139 390.75 421.61 381.717 422.073 370C422.51 358.952 433.397 350.11 432.507 339C431.736 329.389 423.17 322.458 422.145 313C420.869 301.216 428.92 293.705 431.926 283C433.886 276.019 431.067 269.246 433 262C391.648 258.368 349.971 247.113 309 240.249C295.498 237.987 280.693 233.2 267 233.23C251.473 233.264 234.273 238.549 219 241.383C180.302 248.564 140.172 258.503 101 262C103.844 268.402 111.696 274.697 111.62 282C111.51 292.504 100.323 299.895 101.523 311C102.78 322.629 113.335 330.737 111.772 343C110.507 352.929 101.252 360.885 101.252 371C101.252 384.052 114.113 393.141 112 407C97.1493 403.291 82.9757 381.697 86.5777 366C88.6628 356.913 96.9977 349.762 96.6743 340C96.281 328.133 84.5278 319.318 86.2626 307C88.1826 293.367 107.384 274.091 88 264C95.0088 280.915 88.7249 289.151 82 305C74.2124 287.524 80 257.028 80 238C142.106 234.712 202.833 210.15 265 206.551C275.933 205.917 288.223 209.784 299 211.584C321.352 215.317 343.656 219.316 366 223.082C387.68 226.735 409.384 230.372 431 234.383C436.306 235.368 449.355 235.14 452.85 239.69C456.64 244.623 454 258.952 454 265C454 288.708 453 312.337 453 336M294 271C303.868 253.963 330.276 250.726 347 257.908C353.681 260.777 359.13 267.766 366 269.588C379.841 273.261 396.657 269.127 411 271C403.348 290.066 390.666 288 373 288C373 304.901 372.254 319.552 358.989 331.875C326.732 361.843 275.509 330.075 285 288L251 288C266.377 344.524 175.823 366.241 163.693 308C162.395 301.768 162.331 294.133 164 288C145.066 288 131.964 290.772 123 271C138.143 269.023 156.337 273.668 170.885 269.591C184.223 265.853 191.146 254.253 207 254.038C223.424 253.814 230.935 265.924 245 269.591C260.711 273.687 278.184 268.762 294 271M428 274C427.992 287.286 417.743 296.412 417.326 309C416.949 320.357 428.112 328.732 427.907 340C427.697 351.502 416.752 360.582 417.345 372C418.082 386.198 438.9 400.747 419.001 409.662C416.379 410.837 413.819 411.534 411 412C414.759 395.931 404.59 389.617 402.267 375C400.227 362.167 411.359 353.347 412.159 341C412.819 330.805 404.495 323.493 402.451 314C399.82 301.779 417.773 279.289 428 274M117 285C126.519 296.159 118.832 301.845 121.798 314C124.223 323.938 133.357 332.134 131.487 343C129.745 353.118 120.624 361.361 121.268 372C122.335 389.654 135.82 396.122 128 415C124.723 414.181 120.227 413.259 118.15 410.298C115.665 406.756 116.724 400.182 115.442 396C112.635 386.847 103.886 378.222 106.014 368C108.007 358.427 116.551 349.948 116.551 340C116.551 331.449 109.655 324.701 107.019 317C103.212 305.88 109.667 293.177 117 285M128.352 302.435C132.715 302.435 137.516 311.921 139.712 315C145.047 322.48 152.768 332.148 151.438 342C149.97 352.863 140.13 361.729 141.156 373C142.04 382.722 150.504 390.227 151.636 400C152.272 405.481 147.708 420.742 140.874 421.009C127.483 421.533 137.279 405.639 136.018 399C133.868 387.678 125.254 380.198 126.071 368C127.109 352.496 140.91 345.596 132.748 329C131.525 326.515 120.072 302.435 128.352 302.435M397 313C401.312 323.063 409.587 332.331 407.733 344C406.22 353.52 397.666 361.027 397.666 371C397.666 389.921 421.638 407.329 395 420.745C391.42 422.548 387.888 424.029 384 425C386.633 416.592 393.682 409.363 392.746 400C391.676 389.297 381.527 381.097 382.154 370C382.707 360.206 390.771 352.542 392.494 343C394.881 329.781 382.977 323.515 397 313M82 314C91.1064 335.462 94.2115 343.792 82 365C79.3628 361.142 80 356.54 80 352C79.9999 341.179 76.6764 323.626 82 314M362 435C362.698 423.014 373.017 413.679 373.204 402C373.473 385.178 356.581 375.93 366.436 358C370.54 350.532 373.245 341.711 378.578 335.016C380.032 333.19 383.348 328.982 386.074 330.933C396.642 338.497 379.431 359.705 378.263 368C376.746 378.766 385.451 387.153 388.035 397C391.996 412.097 376.915 433.179 362 435M157 338C160.429 341.531 166.628 346.693 166.91 352C167.27 358.761 160.252 364.658 160.543 372C160.909 381.249 169.031 388.06 170.624 397C172.783 409.115 164.488 419.424 160 430C139.907 424.972 156.325 414.37 155.814 401C155.424 390.804 146.375 383.044 145.238 373C144.066 362.655 153.234 347.574 157 338M453 346C453 360.382 455.778 378.113 452 392C434.281 377.377 445.938 362.663 451 346L453 346M180 440C175.402 438.401 167.501 436.089 165.843 430.874C163.406 423.207 173.692 412.479 175.276 405C178.305 390.708 154.921 372.687 168.703 359.451C171.719 356.554 178.602 358.8 180.223 362.49C181.821 366.127 179.595 371.019 180.7 375C183.547 385.257 192.615 393.619 190.624 405C188.391 417.755 180.008 426.308 180 440M353.958 360.434C361.25 360.149 357.658 373.989 359.822 379C362.983 386.321 368.874 393.727 368.874 402C368.874 410.695 362.432 418.146 359.503 426C356.815 433.209 358.91 442.073 348.091 442.353C341.477 442.525 342.621 431.125 343.578 427C345.649 418.073 352.937 411.57 353.214 402C353.535 390.864 328.947 361.413 353.958 360.434M208 392L200 392C202.866 396.207 209.036 401.873 209.675 407C210.671 414.991 200.739 423.472 200.27 432C199.888 438.966 204.726 445.271 206 452C202.203 450.68 198.572 449.089 195 447.237C172.226 435.432 195.401 417.68 195.221 401C195.099 389.61 183.195 380.724 184.497 369.004C185.228 362.431 194.431 359.694 198.85 364.953C200.976 367.482 200.159 372.867 200.923 376C202.34 381.814 206.094 386.412 208 392M335.588 364.05C339.088 365.178 338.616 374.857 339.903 378C343.223 386.104 349.527 393.813 348.864 403C348.205 412.113 341.199 419.294 339.074 428C337.698 433.639 344.105 453.346 331.145 449.157C326.079 447.519 323.476 438.7 323.136 434C322.121 419.933 336.334 409.624 333.784 395C332.271 386.325 321.741 380.895 322.522 371.073C322.9 366.317 331.347 362.684 335.588 364.05M219 367C219.955 377.692 225.981 385.109 229 395C224.191 394.997 218.362 395.578 214.375 392.342C210.222 388.971 199.669 372.046 205.718 367.15C208.918 364.56 215.345 366.523 219 367M309.015 368.348C319.23 366.614 329.271 391.324 319.959 393.462C309.456 395.874 296.468 370.478 309.015 368.348M250 399C233.985 398.907 224.477 384.566 224 369C238.984 369.205 248.237 384.573 250 399M291.001 371.351C299.553 370.269 312.515 394.854 301.985 396.652C291.247 398.486 276.976 373.125 291.001 371.351M244 372C256.99 373.141 260.659 377.585 266.241 389C267.474 391.52 271.836 398.248 269.14 400.85C257.374 412.206 244.487 379.145 244 372M275.929 375.023C284.873 377.59 295.628 405.058 277.349 400.473C270.757 398.819 257.754 369.805 275.929 375.023M81 375C84.8969 381.769 89.4688 389.295 91 397C79.7939 395.145 77.2025 385.162 81 375M329 402C327.767 420.511 314.012 427.911 323.387 446.999C325.07 450.426 325.493 453.265 321.888 455.519C310.926 462.372 302.668 439.337 303.154 431.001C303.61 423.18 322.114 405.798 329 402M231 464C218.102 459.516 205.674 448.55 204.255 434C203.816 429.5 208.098 413.435 214.019 413.435C217.449 413.435 219.951 419.279 220.512 422C221.606 427.305 219.188 432.614 220.699 438C223.261 447.129 230.002 454.317 231 464M241 422C239.849 428.341 239.201 434.933 241.822 441C244.92 448.173 254.462 460.464 249.397 468.577C246.6 473.057 238.992 468.545 236.707 465.622C234.417 462.692 234.367 458.394 233.041 455C230.217 447.773 217.382 430.521 226.818 423.15C230.024 420.645 237.148 422 241 422M261 422C258.094 437.516 265.521 444.82 269.527 459C271.592 466.31 266.612 484.602 256.412 475.938C251.456 471.728 255.738 463.46 253.972 458C251.654 450.836 235.046 427.083 249.146 422.521C252.749 421.355 257.256 422 261 422M280 422C279.865 445.415 303.367 470.667 270 479C272.119 471.922 275.221 465.631 273.55 458C272.051 451.158 254.14 426.834 268.189 422.412C271.74 421.295 276.31 422 280 422M299 422C299 427.513 298.22 433.709 300.018 439C304.357 451.767 315.491 463.608 295 467C292.806 450.922 269.205 422.004 299 422z"/>
</svg>
